<svg width="700" height="624" xmlns="http://www.w3.org/2000/svg">
  <!-- Background -->
  <rect width="700" height="624" fill="#0d1117" rx="8"/>

  <!-- Card -->
  <rect x="0" y="0" width="700" height="624" fill="#161b22" rx="8" stroke="#30363d" stroke-width="1"/>

  <!-- Title -->
  <text x="40" y="60" font-family="system-ui, -apple-system, sans-serif" font-size="18" font-weight="600" fill="#f0f6fc">
    Top Languages
  </text>

  <!-- Language Bars -->
  <g transform="translate(40, 60)">
    <!-- HTML -->
    <rect x="0" y="0" width="620" height="50" fill="#1c2128" rx="6"/>

    <!-- Language name -->
    <text x="15" y="25" font-family="system-ui, -apple-system, sans-serif" font-size="14" font-weight="600" fill="#f0f6fc" dominant-baseline="middle">
      HTML
    </text>

    <!-- Percentage -->
    <text x="605" y="25" font-family="system-ui, -apple-system, sans-serif" font-size="14" font-weight="500" fill="#8b949e" text-anchor="end" dominant-baseline="middle">
      49.9%
    </text>

    <!-- Progress bar background -->
    <rect x="15" y="35" width="590" height="8" fill="#0d1117" rx="4"/>

    <!-- Progress bar fill -->
    <rect x="15" y="35" width="294.1388339822371" height="8" fill="#E34F26" rx="4"/>
    <!-- JavaScript -->
    <rect x="0" y="62" width="620" height="50" fill="#1c2128" rx="6"/>

    <!-- Language name -->
    <text x="15" y="87" font-family="system-ui, -apple-system, sans-serif" font-size="14" font-weight="600" fill="#f0f6fc" dominant-baseline="middle">
      JavaScript
    </text>

    <!-- Percentage -->
    <text x="605" y="87" font-family="system-ui, -apple-system, sans-serif" font-size="14" font-weight="500" fill="#8b949e" text-anchor="end" dominant-baseline="middle">
      26.9%
    </text>

    <!-- Progress bar background -->
    <rect x="15" y="97" width="590" height="8" fill="#0d1117" rx="4"/>

    <!-- Progress bar fill -->
    <rect x="15" y="97" width="158.50320006046584" height="8" fill="#F7DF1E" rx="4"/>
    <!-- Jupyter Notebook -->
    <rect x="0" y="124" width="620" height="50" fill="#1c2128" rx="6"/>

    <!-- Language name -->
    <text x="15" y="149" font-family="system-ui, -apple-system, sans-serif" font-size="14" font-weight="600" fill="#f0f6fc" dominant-baseline="middle">
      Jupyter Notebook
    </text>

    <!-- Percentage -->
    <text x="605" y="149" font-family="system-ui, -apple-system, sans-serif" font-size="14" font-weight="500" fill="#8b949e" text-anchor="end" dominant-baseline="middle">
      14.2%
    </text>

    <!-- Progress bar background -->
    <rect x="15" y="159" width="590" height="8" fill="#0d1117" rx="4"/>

    <!-- Progress bar fill -->
    <rect x="15" y="159" width="83.92084733956673" height="8" fill="#DA5B0B" rx="4"/>
    <!-- Python -->
    <rect x="0" y="186" width="620" height="50" fill="#1c2128" rx="6"/>

    <!-- Language name -->
    <text x="15" y="211" font-family="system-ui, -apple-system, sans-serif" font-size="14" font-weight="600" fill="#f0f6fc" dominant-baseline="middle">
      Python
    </text>

    <!-- Percentage -->
    <text x="605" y="211" font-family="system-ui, -apple-system, sans-serif" font-size="14" font-weight="500" fill="#8b949e" text-anchor="end" dominant-baseline="middle">
      3.5%
    </text>

    <!-- Progress bar background -->
    <rect x="15" y="221" width="590" height="8" fill="#0d1117" rx="4"/>

    <!-- Progress bar fill -->
    <rect x="15" y="221" width="20.50341157297786" height="8" fill="#3776AB" rx="4"/>
    <!-- CSS -->
    <rect x="0" y="248" width="620" height="50" fill="#1c2128" rx="6"/>

    <!-- Language name -->
    <text x="15" y="273" font-family="system-ui, -apple-system, sans-serif" font-size="14" font-weight="600" fill="#f0f6fc" dominant-baseline="middle">
      CSS
    </text>

    <!-- Percentage -->
    <text x="605" y="273" font-family="system-ui, -apple-system, sans-serif" font-size="14" font-weight="500" fill="#8b949e" text-anchor="end" dominant-baseline="middle">
      3.0%
    </text>

    <!-- Progress bar background -->
    <rect x="15" y="283" width="590" height="8" fill="#0d1117" rx="4"/>

    <!-- Progress bar fill -->
    <rect x="15" y="283" width="17.803268595630634" height="8" fill="#1572B6" rx="4"/>
    <!-- Go -->
    <rect x="0" y="310" width="620" height="50" fill="#1c2128" rx="6"/>

    <!-- Language name -->
    <text x="15" y="335" font-family="system-ui, -apple-system, sans-serif" font-size="14" font-weight="600" fill="#f0f6fc" dominant-baseline="middle">
      Go
    </text>

    <!-- Percentage -->
    <text x="605" y="335" font-family="system-ui, -apple-system, sans-serif" font-size="14" font-weight="500" fill="#8b949e" text-anchor="end" dominant-baseline="middle">
      1.7%
    </text>

    <!-- Progress bar background -->
    <rect x="15" y="345" width="590" height="8" fill="#0d1117" rx="4"/>

    <!-- Progress bar fill -->
    <rect x="15" y="345" width="9.88852052207028" height="8" fill="#00ADD8" rx="4"/>
    <!-- Shell -->
    <rect x="0" y="372" width="620" height="50" fill="#1c2128" rx="6"/>

    <!-- Language name -->
    <text x="15" y="397" font-family="system-ui, -apple-system, sans-serif" font-size="14" font-weight="600" fill="#f0f6fc" dominant-baseline="middle">
      Shell
    </text>

    <!-- Percentage -->
    <text x="605" y="397" font-family="system-ui, -apple-system, sans-serif" font-size="14" font-weight="500" fill="#8b949e" text-anchor="end" dominant-baseline="middle">
      0.7%
    </text>

    <!-- Progress bar background -->
    <rect x="15" y="407" width="590" height="8" fill="#0d1117" rx="4"/>

    <!-- Progress bar fill -->
    <rect x="15" y="407" width="4.163669993696889" height="8" fill="#89E051" rx="4"/>
    <!-- Lua -->
    <rect x="0" y="434" width="620" height="50" fill="#1c2128" rx="6"/>

    <!-- Language name -->
    <text x="15" y="459" font-family="system-ui, -apple-system, sans-serif" font-size="14" font-weight="600" fill="#f0f6fc" dominant-baseline="middle">
      Lua
    </text>

    <!-- Percentage -->
    <text x="605" y="459" font-family="system-ui, -apple-system, sans-serif" font-size="14" font-weight="500" fill="#8b949e" text-anchor="end" dominant-baseline="middle">
      0.1%
    </text>

    <!-- Progress bar background -->
    <rect x="15" y="469" width="590" height="8" fill="#0d1117" rx="4"/>

    <!-- Progress bar fill -->
    <rect x="15" y="469" width="0.8613109903257598" height="8" fill="#000080" rx="4"/>
  </g>

  <!-- Footer -->
  <text x="660" y="584" font-family="system-ui, -apple-system, sans-serif" font-size="11" fill="#8b949e" text-anchor="end">
    7 repos • Public & Private
  </text>
</svg>